700 0 1 0           
33 Autodesk Inventor 20.0.13800.0000 18 ASM 221.1.0.540 NT 24 Sat Aug 15 23:17:34 2015 
25.399999999999999 9.9999999999999995e-007 1e-010 
body $1 -1 $-1 $2 $-1 $-1 #
DXID-attrib $-1 -1 $-1 $-1 $0 @10 ASM ENTITY @118 C:\snobotics\CAD-Development\robSteele\SnoBoticsSummer2015\Gripper\Support For Arms 1_4 plate with delrin slider.ipt\2 #
lump $-1 -1 $-1 $-1 $3 $0 #
shell $-1 -1 $-1 $-1 $-1 $4 $-1 $2 #
face $-1 -1 $-1 $5 $6 $3 $-1 $7 reversed single #
face $-1 -1 $-1 $8 $9 $3 $-1 $10 forward single #
loop $-1 -1 $-1 $-1 $11 $4 #
plane-surface $-1 -1 $-1 2.6225740739176924e-016 -0.6825 -0.014999999999999999 0 0 -1 -0.39370078740157477 0 0 forward_v I I I I #
face $-1 -1 $-1 $12 $13 $3 $-1 $14 reversed single #
loop $-1 -1 $-1 $15 $16 $5 #
plane-surface $-1 -1 $-1 0.62499999999999978 1.25 0 1 1.398706172756103e-016 0 5.5067172155752081e-017 -0.39370078740157477 0 forward_v I I I I #
coedge $-1 -1 $-1 $17 $18 $19 $20 reversed $6 $-1 #
face $-1 -1 $-1 $21 $22 $3 $-1 $23 reversed single #
loop $-1 -1 $-1 $-1 $19 $8 #
plane-surface $-1 -1 $-1 -0.62499999999999944 -0.98999999999999977 -0.24999999999999989 -2.7974123455122049e-016 1 0 0 0 0.39370078740157477 forward_v I I I I #
loop $-1 -1 $-1 $-1 $24 $5 #
coedge $-1 -1 $-1 $16 $16 $25 $26 forward $9 $-1 #
coedge $-1 -1 $-1 $27 $11 $28 $29 reversed $6 $-1 #
coedge $-1 -1 $-1 $11 $27 $30 $31 reversed $6 $-1 #
coedge $-1 -1 $-1 $32 $33 $11 $20 forward $13 $-1 #
edge $-1 -1 $-1 $34 -2.3812499999999996 $35 0.79374999999999984 $19 $36 forward @7 unknown #
face $-1 -1 $-1 $37 $38 $3 $-1 $39 forward single #
loop $-1 -1 $-1 $-1 $40 $12 #
plane-surface $-1 -1 $-1 0 0.8125 -0.014999999999999999 0 0 -1 -0.39370078740157477 0 0 forward_v I I I I #
coedge $-1 -1 $-1 $28 $41 $42 $43 forward $15 $-1 #
coedge $-1 -1 $-1 $25 $25 $16 $26 reversed $44 $-1 #
edge $-1 -1 $-1 $45 -2.2347670861524402e-032 $45 6.2831853071795862 $16 $46 forward @7 unknown #
coedge $-1 -1 $-1 $18 $17 $47 $48 reversed $6 $-1 #
coedge $-1 -1 $-1 $49 $24 $17 $29 forward $15 $-1 #
edge $-1 -1 $-1 $50 1.673225 $34 3.235325 $28 $51 forward @7 unknown #
coedge $-1 -1 $-1 $52 $53 $18 $31 forward $38 $-1 #
edge $-1 -1 $-1 $35 -0.06032499999999974 $54 1.5017749999999999 $30 $55 forward @7 unknown #
coedge $-1 -1 $-1 $56 $19 $53 $57 reversed $13 $-1 #
coedge $-1 -1 $-1 $19 $56 $49 $58 reversed $13 $-1 #
vertex $-1 -1 $-1 $58 $59 #
vertex $-1 -1 $-1 $31 $60 #
straight-curve $-1 -1 $-1 -0.31249999999999956 -0.98999999999999977 -0.015000000000000008 -0.39370078740157477 -1.1013434431150413e-016 -0 I I #
face $-1 -1 $-1 $61 $62 $3 $-1 $63 reversed single #
loop $-1 -1 $-1 $64 $52 $21 #
plane-surface $-1 -1 $-1 -0.62499999999999933 -1.2499999999999996 0 -1 -2.7974123455122059e-016 -0 -1.1013434431150416e-016 0.39370078740157477 0 forward_v I I I I #
coedge $-1 -1 $-1 $65 $66 $67 $68 reversed $22 $-1 #
coedge $-1 -1 $-1 $24 $69 $70 $71 reversed $15 $-1 #
coedge $-1 -1 $-1 $72 $47 $24 $43 reversed $73 $-1 #
edge $-1 -1 $-1 $74 -4.4450000000000003 $50 0.038100000000000002 $24 $75 forward @7 unknown #
loop $-1 -1 $-1 $-1 $25 $76 #
vertex $-1 -1 $-1 $26 $77 #
ellipse-curve $-1 -1 $-1 0.62499999999999933 1.7483827159451275e-016 1.25 -1 -1.398706172756103e-016 -0 0 0 -0.19149999999999998 1 I I #
coedge $-1 -1 $-1 $42 $78 $27 $48 forward $73 $-1 #
edge $-1 -1 $-1 $54 -3.1749999999999989 $50 -0 $47 $79 forward @7 unknown #
coedge $-1 -1 $-1 $80 $28 $33 $58 forward $15 $-1 #
vertex $-1 -1 $-1 $43 $81 #
straight-curve $-1 -1 $-1 0.62499999999999989 0.28375000000000006 -0.014999999999999999 5.5067172155752081e-017 -0.39370078740157477 0 I I #
coedge $-1 -1 $-1 $82 $30 $78 $83 forward $38 $-1 #
coedge $-1 -1 $-1 $30 $84 $32 $57 forward $38 $-1 #
vertex $-1 -1 $-1 $83 $85 #
straight-curve $-1 -1 $-1 -0.62499999999999944 -0.96624999999999994 -0.014999999999999999 -1.1013434431150416e-016 0.39370078740157477 0 I I #
coedge $-1 -1 $-1 $33 $32 $86 $87 reversed $13 $-1 #
edge $-1 -1 $-1 $88 -0.31749999999999989 $35 0.27939999999999987 $53 $89 forward @7 unknown #
edge $-1 -1 $-1 $34 -0.27939999999999987 $90 0.31749999999999989 $49 $91 forward @7 unknown #
point $-1 -1 $-1 0.62500000000000022 -0.98999999999999977 -0.014999999999999999 #
point $-1 -1 $-1 -0.62499999999999944 -0.98999999999999977 -0.014999999999999999 #
face $-1 -1 $-1 $92 $93 $3 $-1 $94 reversed single #
loop $-1 -1 $-1 $95 $96 $37 #
cone-surface $-1 -1 $-1 1.3987061727561026e-015 2.0980592591341539e-015 1.5 0 0 1 0.09799999999999999 0 0 1 I I -0 1 0.09799999999999999 reversed I I I I #
loop $-1 -1 $-1 $-1 $97 $21 #
coedge $-1 -1 $-1 $98 $40 $99 $100 reversed $22 $-1 #
coedge $-1 -1 $-1 $40 $98 $101 $102 reversed $22 $-1 #
coedge $-1 -1 $-1 $103 $104 $40 $68 forward $38 $-1 #
edge $-1 -1 $-1 $105 1.5081249999999999 $106 3.7306249999999999 $67 $107 forward @7 unknown #
coedge $-1 -1 $-1 $41 $108 $109 $110 forward $15 $-1 #
coedge $-1 -1 $-1 $111 $112 $41 $71 forward $113 $-1 #
edge $-1 -1 $-1 $74 0 $114 1.905 $41 $115 forward @7 unknown #
coedge $-1 -1 $-1 $78 $42 $112 $116 reversed $73 $-1 #
loop $-1 -1 $-1 $-1 $42 $117 #
vertex $-1 -1 $-1 $43 $118 #
straight-curve $-1 -1 $-1 0.625 -0.37499999999999994 0 0 0 -0.39370078740157477 I I #
face $-1 -1 $-1 $119 $120 $3 $-1 $121 reversed single #
point $-1 -1 $-1 0.62499999999999989 1.7483827159451283e-016 1.0585 #
coedge $-1 -1 $-1 $47 $72 $52 $83 reversed $73 $-1 #
straight-curve $-1 -1 $-1 0.625 -0.37499999999999989 -0.014999999999999999 0.39370078740157477 5.5067172155752088e-017 0 I I #
coedge $-1 -1 $-1 $122 $49 $123 $124 forward $15 $-1 #
point $-1 -1 $-1 0.625 -0.37499999999999983 -0.014999999999999999 #
coedge $-1 -1 $-1 $104 $52 $125 $126 reversed $38 $-1 #
edge $-1 -1 $-1 $54 -0.038100000000000002 $127 4.4450000000000003 $52 $128 forward @7 unknown #
coedge $-1 -1 $-1 $53 $103 $129 $130 forward $38 $-1 #
point $-1 -1 $-1 -0.62499999999999956 -0.375 -0.014999999999999999 #
coedge $-1 -1 $-1 $129 $123 $56 $87 forward $131 $-1 #
edge $-1 -1 $-1 $90 -1.5874999999999995 $88 1.5874999999999995 $86 $132 forward @7 unknown #
vertex $-1 -1 $-1 $87 $133 #
straight-curve $-1 -1 $-1 -0.62499999999999944 -0.98999999999999977 -0.12499999999999994 0 0 0.39370078740157477 I I #
vertex $-1 -1 $-1 $124 $134 #
straight-curve $-1 -1 $-1 0.62500000000000011 -0.98999999999999966 -0.12499999999999994 0 0 -0.39370078740157477 I I #
face $-1 -1 $-1 $76 $131 $3 $-1 $135 reversed single #
loop $-1 -1 $-1 $136 $137 $61 #
cone-surface $-1 -1 $-1 2.0115865457378348e-016 -2.8777065653083436 0.75 -3.4967654318902574e-017 1 0 0.09799999999999999 3.4268301232524519e-018 0 1 I I -0 1 0.09799999999999999 reversed I I I I #
loop $-1 -1 $-1 $-1 $138 $37 #
coedge $-1 -1 $-1 $96 $96 $139 $140 reversed $62 $-1 #
coedge $-1 -1 $-1 $97 $97 $141 $142 forward $64 $-1 #
coedge $-1 -1 $-1 $66 $65 $108 $143 reversed $22 $-1 #
coedge $-1 -1 $-1 $144 $109 $65 $100 forward $145 $-1 #
edge $-1 -1 $-1 $146 -3.1749999999999998 $105 -0 $99 $147 forward @7 unknown #
coedge $-1 -1 $-1 $148 $149 $66 $102 forward $150 $-1 #
edge $-1 -1 $-1 $106 -0.79375000000000018 $151 2.3812500000000005 $101 $152 forward @7 unknown #
coedge $-1 -1 $-1 $84 $67 $149 $153 forward $38 $-1 #
coedge $-1 -1 $-1 $67 $82 $144 $154 forward $38 $-1 #
vertex $-1 -1 $-1 $154 $155 #
vertex $-1 -1 $-1 $153 $156 #
straight-curve $-1 -1 $-1 -0.62499999999999978 -0.21874999999999992 -0.014999999999999999 -1.1013434431150416e-016 0.39370078740157477 0 I I #
coedge $-1 -1 $-1 $69 $122 $98 $143 forward $15 $-1 #
coedge $-1 -1 $-1 $99 $157 $69 $110 reversed $145 $-1 #
edge $-1 -1 $-1 $146 -0.038100000000000002 $114 4.4450000000000003 $69 $158 forward @7 unknown #
coedge $-1 -1 $-1 $125 $70 $157 $159 forward $113 $-1 #
coedge $-1 -1 $-1 $70 $125 $72 $116 forward $113 $-1 #
loop $-1 -1 $-1 $-1 $112 $160 #
vertex $-1 -1 $-1 $110 $161 #
straight-curve $-1 -1 $-1 0.625 -0.37499999999999989 1.75 0 0.39370078740157477 0 I I #
edge $-1 -1 $-1 $127 0 $74 3.1749999999999994 $72 $162 forward @7 unknown #
face $-1 -1 $-1 $160 $163 $3 $-1 $164 forward single #
point $-1 -1 $-1 0.625 -0.37499999999999989 1.75 #
face $-1 -1 $-1 $117 $165 $3 $-1 $166 forward single #
loop $-1 -1 $-1 $167 $139 $76 #
cone-surface $-1 -1 $-1 -2.9631750236018304 -3.2704198384960273e-016 1.25 1 1.398706172756103e-016 0 0 0 -0.19149999999999998 1 I I -0 1 0.19149999999999998 reversed I I I I #
coedge $-1 -1 $-1 $108 $80 $148 $168 reversed $15 $-1 #
coedge $-1 -1 $-1 $86 $169 $80 $124 reversed $131 $-1 #
edge $-1 -1 $-1 $90 -2.5145999999999993 $170 3.1750000000000007 $80 $171 forward @7 unknown #
coedge $-1 -1 $-1 $112 $111 $82 $126 forward $113 $-1 #
edge $-1 -1 $-1 $172 0 $127 1.9049999999999996 $82 $173 forward @7 unknown #
vertex $-1 -1 $-1 $83 $174 #
straight-curve $-1 -1 $-1 -0.62499999999999967 -0.375 0 0 0 0.39370078740157477 I I #
coedge $-1 -1 $-1 $169 $86 $84 $130 reversed $131 $-1 #
edge $-1 -1 $-1 $175 -6.3500000000000005 $88 -0.6604000000000001 $84 $176 forward @7 unknown #
loop $-1 -1 $-1 $-1 $86 $92 #
straight-curve $-1 -1 $-1 2.6960061479873873e-016 -0.98999999999999944 -0.24999999999999975 -0.39370078740157477 -1.1013434431150413e-016 -6.4185661342061198e-033 I I #
point $-1 -1 $-1 -0.62499999999999944 -0.98999999999999977 -0.24999999999999989 #
point $-1 -1 $-1 0.625 -0.98999999999999944 -0.24999999999999989 #
plane-surface $-1 -1 $-1 0.62500000000000011 -1.2499999999999996 -0.24999999999999981 3.260631596176706e-032 -1.7483827159451283e-016 1 -5.5067172155752081e-017 0.39370078740157477 6.8833965194690085e-017 forward_v I I I I #
loop $-1 -1 $-1 $-1 $177 $61 #
coedge $-1 -1 $-1 $137 $137 $178 $179 reversed $93 $-1 #
coedge $-1 -1 $-1 $138 $138 $180 $181 reversed $95 $-1 #
coedge $-1 -1 $-1 $139 $139 $96 $140 forward $120 $-1 #
edge $-1 -1 $-1 $182 0 $182 1.5326155648832371 $139 $183 forward @7 unknown #
coedge $-1 -1 $-1 $141 $141 $97 $142 reversed $167 $-1 #
edge $-1 -1 $-1 $184 -3.1415926535897931 $184 3.1415926535897931 $97 $185 forward @7 unknown #
edge $-1 -1 $-1 $151 -0.55562500000000004 $146 1.6668750000000001 $108 $186 forward @7 unknown #
coedge $-1 -1 $-1 $157 $99 $104 $154 reversed $145 $-1 #
loop $-1 -1 $-1 $-1 $144 $119 #
vertex $-1 -1 $-1 $110 $187 #
straight-curve $-1 -1 $-1 -0.62499999999999978 0.375 -0.014999999999999999 -0.39370078740157477 -1.376679303893802e-017 -0 I I #
coedge $-1 -1 $-1 $188 $101 $122 $168 forward $150 $-1 #
coedge $-1 -1 $-1 $101 $188 $103 $153 reversed $150 $-1 #
loop $-1 -1 $-1 $-1 $101 $189 #
vertex $-1 -1 $-1 $168 $190 #
straight-curve $-1 -1 $-1 -0.31250000000000006 1.25 -0.014999999999999999 0.39370078740157477 0 0 I I #
edge $-1 -1 $-1 $106 0.038100000000000002 $175 0.63499999999999845 $103 $191 forward @7 unknown #
edge $-1 -1 $-1 $172 -4.4450000000000003 $105 0.038100000000000002 $104 $192 forward @7 unknown #
point $-1 -1 $-1 -0.62499999999999978 0.375 -0.014999999999999999 #
point $-1 -1 $-1 -0.62500000000000011 1.25 -0.014999999999999999 #
coedge $-1 -1 $-1 $109 $144 $111 $159 reversed $145 $-1 #
straight-curve $-1 -1 $-1 0.62499999999999978 0.375 0 0 0 0.39370078740157477 I I #
edge $-1 -1 $-1 $114 0 $172 3.1749999999999998 $157 $193 forward @7 unknown #
face $-1 -1 $-1 $189 $194 $3 $-1 $195 forward single #
point $-1 -1 $-1 0.625 0.37500000000000011 1.75 #
straight-curve $-1 -1 $-1 -0.62499999999999967 -0.37499999999999978 1.75 0.39370078740157477 -4.130037911681406e-017 0 I I #
loop $-1 -1 $-1 $73 $178 $117 #
plane-surface $-1 -1 $-1 -0.62499999999999967 -0.37499999999999978 0 -1.0490296295670772e-016 -1 0 0.39370078740157477 -4.130037911681406e-017 0 forward_v I I I I #
loop $-1 -1 $-1 $145 $196 $119 #
plane-surface $-1 -1 $-1 0.625 0.37500000000000006 0 -3.4967654318902574e-017 1 0 -0.39370078740157477 -1.376679303893802e-017 0 forward_v I I I I #
loop $-1 -1 $-1 $44 $141 $76 #
edge $-1 -1 $-1 $151 0.038100000000000002 $170 0.63499999999999845 $148 $197 forward @7 unknown #
coedge $-1 -1 $-1 $123 $129 $188 $198 reversed $131 $-1 #
vertex $-1 -1 $-1 $124 $199 #
straight-curve $-1 -1 $-1 0.62499999999999989 1.9669305554382689e-016 -0.24999999999999958 -5.5067172155752081e-017 0.39370078740157477 6.8833965194690085e-017 I I #
vertex $-1 -1 $-1 $154 $200 #
straight-curve $-1 -1 $-1 -0.62499999999999978 0.375 1.75 9.1778620259586809e-017 -0.39370078740157477 0 I I #
point $-1 -1 $-1 -0.62499999999999967 -0.37499999999999978 1.75 #
vertex $-1 -1 $-1 $198 $201 #
straight-curve $-1 -1 $-1 -0.62499999999999933 -1.2499999999999998 -0.24999999999999981 1.1013434431150416e-016 -0.39370078740157477 -6.8833965194690085e-017 I I #
coedge $-1 -1 $-1 $177 $177 $196 $202 reversed $136 $-1 #
coedge $-1 -1 $-1 $178 $178 $137 $179 forward $163 $-1 #
edge $-1 -1 $-1 $203 -3.1415926535897931 $203 3.1415926535897931 $178 $204 forward @7 unknown #
coedge $-1 -1 $-1 $180 $180 $138 $181 forward $194 $-1 #
edge $-1 -1 $-1 $205 0 $205 6.2831853071795862 $180 $206 forward @7 unknown #
vertex $-1 -1 $-1 $140 $207 #
intcurve-curve $-1 -1 $-1 forward { surfintcur full nubs 3 periodic 17 
	0 3 0.095933933935560878 2 0.19186786787112176 2 0.28751087954596533 2 0.38315389122080895 2 
	0.47879690289565324 2 0.57443991457049748 2 0.67037384850605808 2 0.76630778244161868 2 0.86224171637717928 2 
	0.95817565031273988 2 1.053818661987584 2 1.1494616736624284 2 1.2451046853372718 2 1.3407476970121155 2 
	1.4366816309476764 2 1.5326155648832371 3 
	1.3987061727561026e-015 -0.097999999999997894 1.4145243143125064 
	0.012589755109655055 -0.097999999999997894 1.4145243143125064 
	0.025806896207211275 -0.095435226451851429 1.4161232780967312 
	0.049854000060566464 -0.085372485706625548 1.4215119855001137 
	0.060711667217364575 -0.077881261895198201 1.4251900745875241 
	0.077855228264064547 -0.060737700848498166 1.4318446351365173 
	0.085365458311619111 -0.049871415528140867 1.4352997782725372 
	0.095443716085300848 -0.025785986316654713 1.4401532248398301 
	0.098000000000001419 -0.012551576335279195 1.4415000000000002 
	0.098000000000001405 0.012551576335283518 1.4414999999999998 
	0.09544371608530082 0.025785986316659067 1.4401532248398294 
	0.085365458311619014 0.049871415528145252 1.4352997782725359 
	0.077855228264064241 0.060737700848502524 1.4318446351365159 
	0.060711667217364242 0.077881261895202461 1.4251900745875226 
	0.049854000060566353 0.08537248570662978 1.4215119855001115 
	0.025806896207211293 0.095435226451855606 1.4161232780967286 
	0.012589755109655021 0.098000000000002085 1.4145243143125039 
	-0.012589755109652222 0.098000000000002085 1.4145243143125039 
	-0.02580689620720852 0.095435226451855606 1.4161232780967286 
	-0.049854000060563584 0.08537248570662978 1.4215119855001115 
	-0.060711667217361459 0.077881261895202433 1.4251900745875226 
	-0.077855228264061438 0.060737700848502503 1.4318446351365159 
	-0.085365458311616196 0.049871415528145287 1.4352997782725359 
	-0.095443716085298017 0.025785986316659099 1.4401532248398294 
	-0.097999999999998602 0.012551576335283495 1.4414999999999998 
	-0.097999999999998602 -0.012551576335279212 1.4415 
	-0.095443716085298058 -0.025785986316654727 1.4401532248398301 
	-0.085365458311616307 -0.049871415528140915 1.4352997782725372 
	-0.077855228264061771 -0.060737700848498194 1.4318446351365171 
	-0.060711667217361751 -0.077881261895198256 1.4251900745875241 
	-0.049854000060563633 -0.085372485706625562 1.4215119855001137 
	-0.025806896207208458 -0.095435226451851443 1.4161232780967312 
	-0.012589755109652241 -0.097999999999997894 1.4145243143125064 
	1.3987061727561026e-015 -0.097999999999997894 1.4145243143125064 
	7.7146911167874112e-005 
	
	cone 1.3987061727561026e-015 2.0980592591341539e-015 1.5 0 0 1 0.09799999999999999 0 0 1 I I -0 1 0.09799999999999999 reversed I I I I 
	cone -2.9631750236018304 -3.2704198384960273e-016 1.25 1 1.398706172756103e-016 0 0 0 -0.19149999999999998 1 I I 0 -1 0.19149999999999998 reversed I I I I 
	nullbs 
	nullbs 
	I I 
	0 
	0 
	0 
	} I I #
vertex $-1 -1 $-1 $142 $208 #
ellipse-curve $-1 -1 $-1 -0.62499999999999933 7.7643789883957848e-032 1.25 1 2.7974123455122059e-016 0 0 0 -0.19149999999999998 1 I I #
straight-curve $-1 -1 $-1 0.62499999999999978 1.03125 -0.014999999999999999 5.5067172155752081e-017 -0.39370078740157477 0 I I #
point $-1 -1 $-1 0.62500000000000011 0.375 -0.014999999999999999 #
coedge $-1 -1 $-1 $149 $148 $169 $198 forward $150 $-1 #
face $-1 -1 $-1 $-1 $150 $3 $-1 $209 forward single #
point $-1 -1 $-1 0.62500000000000011 1.25 -0.014999999999999999 #
straight-curve $-1 -1 $-1 -0.62500000000000011 1.25 0 0 0 -0.39370078740157477 I I #
straight-curve $-1 -1 $-1 -0.62499999999999978 0.375 0 0 0 -0.39370078740157477 I I #
straight-curve $-1 -1 $-1 0.625 0.37500000000000006 1.75 -0.39370078740157477 -1.376679303893802e-017 0 I I #
loop $-1 -1 $-1 $113 $180 $160 #
plane-surface $-1 -1 $-1 1.7483827159451283e-016 1.3112870369588462e-016 1.75 0 0 1 0.39370078740157477 0 0 forward_v I I I I #
coedge $-1 -1 $-1 $196 $196 $177 $202 forward $165 $-1 #
straight-curve $-1 -1 $-1 0.62499999999999978 1.25 0 0 0 -0.39370078740157477 I I #
edge $-1 -1 $-1 $170 -1.5874999999999995 $175 1.5875000000000004 $188 $210 forward @7 unknown #
point $-1 -1 $-1 0.62499999999999978 1.2500000000000004 -0.24999999999999936 #
point $-1 -1 $-1 -0.62499999999999978 0.375 1.75 #
point $-1 -1 $-1 -0.62500000000000011 1.2500000000000002 -0.24999999999999936 #
edge $-1 -1 $-1 $211 0 $211 6.2831853071795862 $196 $212 forward @7 unknown #
vertex $-1 -1 $-1 $179 $213 #
ellipse-curve $-1 -1 $-1 1.1364487653643334e-016 -0.37499999999999983 0.75 1.0490296295670772e-016 1 0 0.09799999999999999 3.4268301232524519e-018 0 1 I I #
vertex $-1 -1 $-1 $181 $214 #
ellipse-curve $-1 -1 $-1 1.3987061727561026e-015 2.0980592591341539e-015 1.75 -0 -0 -1 0.09799999999999999 0 0 1 I I #
point $-1 -1 $-1 1.3918765527719419e-015 -0.097999999999997894 1.4145243143125064 #
point $-1 -1 $-1 -0.62499999999999933 -2.3451986203671731e-017 1.4415 #
plane-surface $-1 -1 $-1 -0.62500000000000011 1.25 0 0 1 0 0.39370078740157477 0 0 forward_v I I I I #
straight-curve $-1 -1 $-1 -4.0757894952208646e-033 1.25 -0.24999999999999936 -0.39370078740157477 0 1.2837132268412226e-032 I I #
vertex $-1 -1 $-1 $202 $215 #
ellipse-curve $-1 -1 $-1 8.7419135797256413e-017 0.37500000000000017 0.75 3.4967654318902574e-017 -1 0 0.09799999999999999 3.4268301232524519e-018 0 1 I I #
point $-1 -1 $-1 -0.097999999999999879 -0.37499999999999983 0.75 #
point $-1 -1 $-1 0.098000000000001392 2.0980592591341539e-015 1.75 #
point $-1 -1 $-1 0.098000000000000073 0.375 0.75 #
End-of-ACIS-data 