  0
SECTION
  2
HEADER
  9
$ACADVER
  1
AC1009
  9
$INSBASE
 10
0.0
 20
0.0
 30
0.0
  9
$EXTMIN
 10
0.0
 20
0.0
 30
0.0
  9
$EXTMAX
 10
31.753989731147598
 20
23.580059955624801
 30
0.0
  9
$LIMMIN
 10
0.0
 20
0.0
  9
$LIMMAX
 10
31.753989731147598
 20
23.580059955624801
  9
$ORTHOMODE
 70
     0
  9
$REGENMODE
 70
     1
  9
$FILLMODE
 70
     1
  9
$QTEXTMODE
 70
     0
  9
$MIRRTEXT
 70
     0
  9
$DRAGMODE
 70
     2
  9
$LTSCALE
 40
1.0
  9
$OSMODE
 70
     0
  9
$ATTMODE
 70
     1
  9
$TEXTSIZE
 40
0.2
  9
$TRACEWID
 40
0.05
  9
$TEXTSTYLE
  7
STANDARD
  9
$CLAYER
  8
0
  9
$CELTYPE
  6
BYLAYER
  9
$CECOLOR
 62
   256
  9
$DIMSCALE
 40
1.0
  9
$DIMASZ
 40
0.0708661417322835
  9
$DIMEXO
 40
0.0625
  9
$DIMDLI
 40
0.38
  9
$DIMRND
 40
0.0
  9
$DIMDLE
 40
0.0
  9
$DIMEXE
 40
0.18
  9
$DIMTP
 40
0.0
  9
$DIMTM
 40
0.0
  9
$DIMTXT
 40
0.0708661417322835
  9
$DIMCEN
 40
0.09
  9
$DIMTSZ
 40
0.0
  9
$DIMTOL
 70
     0
  9
$DIMLIM
 70
     0
  9
$DIMTIH
 70
     1
  9
$DIMTOH
 70
     1
  9
$DIMSE1
 70
     0
  9
$DIMSE2
 70
     0
  9
$DIMTAD
 70
     0
  9
$DIMZIN
 70
     0
  9
$DIMBLK
  1

  9
$DIMASO
 70
     1
  9
$DIMSHO
 70
     1
  9
$DIMPOST
  1

  9
$DIMAPOST
  1

  9
$DIMALT
 70
     0
  9
$DIMALTD
 70
     2
  9
$DIMALTF
 40
25.399999999999999
  9
$DIMLFAC
 40
1.0
  9
$DIMTOFL
 70
     0
  9
$DIMTVP
 40
0.0
  9
$DIMTIX
 70
     0
  9
$DIMSOXD
 70
     0
  9
$DIMSAH
 70
     0
  9
$DIMBLK1
  1

  9
$DIMBLK2
  1

  9
$DIMSTYLE
  2
STANDARD
  9
$DIMCLRD
 70
     0
  9
$DIMCLRE
 70
     0
  9
$DIMCLRT
 70
     0
  9
$DIMTFAC
 40
1.0
  9
$DIMGAP
 40
0.09
  9
$LUNITS
 70
     2
  9
$LUPREC
 70
     4
  9
$SKETCHINC
 40
0.1
  9
$FILLETRAD
 40
0.0
  9
$AUNITS
 70
     0
  9
$AUPREC
 70
     0
  9
$MENU
  1
.
  9
$ELEVATION
 40
0.0
  9
$PELEVATION
 40
0.0
  9
$THICKNESS
 40
0.0
  9
$LIMCHECK
 70
     0
  9
$BLIPMODE
 70
     0
  9
$CHAMFERA
 40
0.0
  9
$CHAMFERB
 40
0.0
  9
$SKPOLY
 70
     0
  9
$TDCREATE
 40
2457430.6235997919
  9
$TDUPDATE
 40
2457430.6235997919
  9
$TDINDWG
 40
0.0000035648
  9
$TDUSRTIMER
 40
0.0000035648
  9
$USRTIMER
 70
     1
  9
$ANGBASE
 50
0.0
  9
$ANGDIR
 70
     0
  9
$PDMODE
 70
     0
  9
$PDSIZE
 40
0.0
  9
$PLINEWID
 40
0.0
  9
$COORDS
 70
     0
  9
$SPLFRAME
 70
     0
  9
$SPLINETYPE
 70
     6
  9
$SPLINESEGS
 70
     8
  9
$ATTDIA
 70
     1
  9
$ATTREQ
 70
     1
  9
$HANDLING
 70
     1
  9
$HANDSEED
  5
185
  9
$SURFTAB1
 70
     6
  9
$SURFTAB2
 70
     6
  9
$SURFTYPE
 70
     6
  9
$SURFU
 70
     6
  9
$SURFV
 70
     6
  9
$UCSNAME
  2

  9
$UCSORG
 10
0.0
 20
0.0
 30
0.0
  9
$UCSXDIR
 10
1.0
 20
0.0
 30
0.0
  9
$UCSYDIR
 10
0.0
 20
1.0
 30
0.0
  9
$PUCSNAME
  2

  9
$PUCSORG
 10
0.0
 20
0.0
 30
0.0
  9
$PUCSXDIR
 10
1.0
 20
0.0
 30
0.0
  9
$PUCSYDIR
 10
0.0
 20
1.0
 30
0.0
  9
$USERI1
 70
     0
  9
$USERI2
 70
     0
  9
$USERI3
 70
     0
  9
$USERI4
 70
     0
  9
$USERI5
 70
     0
  9
$USERR1
 40
0.0
  9
$USERR2
 40
0.0
  9
$USERR3
 40
0.0
  9
$USERR4
 40
0.0
  9
$USERR5
 40
0.0
  9
$WORLDVIEW
 70
     1
  9
$SHADEDGE
 70
     3
  9
$SHADEDIF
 70
    70
  9
$TILEMODE
 70
     1
  9
$MAXACTVP
 70
    64
  9
$PLIMCHECK
 70
     0
  9
$PEXTMIN
 10
0.0
 20
0.0
 30
0.0
  9
$PEXTMAX
 10
31.753989731147598
 20
23.580059955624801
 30
0.0
  9
$PLIMMIN
 10
0.0
 20
0.0
  9
$PLIMMAX
 10
31.753989731147598
 20
23.580059955624801
  9
$UNITMODE
 70
     0
  9
$VISRETAIN
 70
     1
  9
$PLINEGEN
 70
     0
  9
$PSLTSCALE
 70
     1
  0
ENDSEC
  0
SECTION
  2
TABLES
  0
TABLE
  2
VPORT
 70
     1
  0
VPORT
  2
*ACTIVE
 70
     0
 10
0.0
 20
0.0
 11
1.0
 21
1.0
 12
10.475
 22
-10.718209062864529
 13
0.0
 23
0.0
 14
1.0
 24
1.0
 15
0.0
 25
0.0
 16
0.0
 26
0.0
 36
1.0
 17
0.0
 27
0.0
 37
0.0
 40
23.580059955624801
 41
1.3466458436028259
 42
50.0
 43
0.0
 44
0.0
 50
0.0
 51
0.0
 71
     0
 72
   100
 73
     1
 74
     1
 75
     0
 76
     0
 77
     0
 78
     0
  0
ENDTAB
  0
TABLE
  2
LTYPE
 70
    59
  0
LTYPE
  2
CONTINUOUS
 70
     0
  3
Solid line
 72
    65
 73
     0
 40
0.0
  0
LTYPE
  2
BY_STANDARD
 70
     0
  3
By Standard ____________    ____    ____   _
 72
    65
 73
     6
 40
1.2402999999999991
 49
0.6614
 49
-0.0827
 49
0.1654
 49
-0.0827
 49
0.1654
 49
-0.0827
  0
LTYPE
  2
CHAIN
 70
     0
  3
Chain ____ _ ____ _ ____ _ ____ _ ____ _ ____
 72
    65
 73
     4
 40
0.7087
 49
0.4724000000000001
 49
-0.0591
 49
0.1181
 49
-0.0591
  0
LTYPE
  2
DASH_DOT
 70
     0
  3
Dash dot __ . __ . __ . __ . __ . __ . __ . __
 72
    65
 73
     4
 40
0.37
 49
0.24
 49
-0.06
 49
0.01
 49
-0.06
  0
LTYPE
  2
DOUBLE_DASH_DOT
 70
     0
  3
Double-Dash Dot __ __ . __ __ . __ __ . __ _
 72
    65
 73
     6
 40
0.4398
 49
0.24
 49
-0.06
 49
0.0098
 49
-0.06
 49
0.01
 49
-0.06
  0
LTYPE
  2
DASH_TRIPLE_DOT
 70
     0
  3
Dash Triple-Dot _ . . . _ . . . _ . . . _
 72
    65
 73
     8
 40
0.51
 49
0.24
 49
-0.06
 49
0.01
 49
-0.06
 49
0.01
 49
-0.06
 49
0.01
 49
-0.06
  0
LTYPE
  2
DASHED
 70
     0
  3
Dashed __ __ __ __ __ __ __ __ __ __ __ __ __ _
 72
    65
 73
     2
 40
0.2067
 49
0.1654
 49
-0.0413
  0
LTYPE
  2
DASH_DOUBLE_DOT
 70
     0
  3
Dash Double-Dot __ . . __ . . __ . . __ . .
 72
    65
 73
     6
 40
0.4398
 49
0.24
 49
-0.06
 49
0.0098
 49
-0.06
 49
0.01
 49
-0.06
  0
LTYPE
  2
DASHED_SPACE
 70
     0
  3
Dashed Space __ __ __ __ __ __ __ __ __ __ __ _
 72
    65
 73
     2
 40
0.2067
 49
0.1654
 49
-0.0413
  0
LTYPE
  2
DOTTED
 70
     0
  3
Dotted . . . . . . . . . . . . . . . . . . . . 
 72
    65
 73
     2
 40
0.0482
 49
0.0069
 49
-0.0413
  0
LTYPE
  2
DOUBLE_DASH_CHAIN
 70
     0
  3
Double-Dash Chain ______  __  __  ______  __  _
 72
    65
 73
     6
 40
1.2402999999999991
 49
0.6614
 49
-0.0827
 49
0.1654
 49
-0.0827
 49
0.1654
 49
-0.0827
  0
LTYPE
  2
DOUBLE_DASH_DOUBLE_DOT
 70
     0
  3
Double-Dash Double-dot _ _ . . _ _ . . _
 72
    65
 73
     8
 40
0.7400000000000001
 49
0.24
 49
-0.06
 49
0.24
 49
-0.06
 49
0.01
 49
-0.06
 49
0.01
 49
-0.06
  0
LTYPE
  2
DOUBLE_DASH_TRIPLE_DOT
 70
     0
  3
Double Dash Triple Dot __ __ . . . __ __ . .
 72
    65
 73
    10
 40
0.8100000000000001
 49
0.24
 49
-0.06
 49
0.24
 49
-0.06
 49
0.01
 49
-0.06
 49
0.01
 49
-0.06
 49
0.01
 49
-0.06
  0
LTYPE
  2
LONG_DASH_DOTTED
 70
     0
  3
Long Dash Dotted ____ . ____ . ____ . ____ . _
 72
    65
 73
     4
 40
0.3543
 49
0.2362
 49
-0.0295
 49
0.0591
 49
-0.0295
  0
LTYPE
  2
LONG_DASH_DOUBLE_DOT
 70
     0
  3
Long Dash Double Dot ________  .  .  ________  
 72
    65
 73
     6
 40
0.6799999999999999
 49
0.48
 49
-0.06
 49
0.01
 49
-0.06
 49
0.01
 49
-0.06
  0
LTYPE
  2
LONG_DASH_TRIPLE_DOT
 70
     0
  3
Long Dash Triple Dot ____ ... ____ ... ____
 72
    65
 73
     8
 40
0.3689
 49
0.2362
 49
-0.0295
 49
0.0049
 49
-0.0295
 49
0.0049
 49
-0.0295
 49
0.0049
 49
-0.0295
  0
LTYPE
  2
BORDER
 70
     0
  3
Border __ __ . __ __ . __ __ . __ __ . __ __ .
 72
    65
 73
     6
 40
1.75
 49
0.5
 49
-0.25
 49
0.5
 49
-0.25
 49
0.0
 49
-0.25
  0
LTYPE
  2
BORDER2
 70
     0
  3
Border (.5x) __.__.__.__.__.__.__.__.__.__.__.
 72
    65
 73
     6
 40
0.875
 49
0.25
 49
-0.125
 49
0.25
 49
-0.125
 49
0.0
 49
-0.125
  0
LTYPE
  2
BORDERX2
 70
     0
  3
Border (2x) ____  ____  .  ____  ____  .  ___
 72
    65
 73
     6
 40
3.5
 49
1.0
 49
-0.5
 49
1.0
 49
-0.5
 49
0.0
 49
-0.5
  0
LTYPE
  2
CENTER
 70
     0
  3
Center ____ _ ____ _ ____ _ ____ _ ____ _ ____
 72
    65
 73
     4
 40
2.0
 49
1.25
 49
-0.25
 49
0.25
 49
-0.25
  0
LTYPE
  2
CENTER2
 70
     0
  3
Center (.5x) ___ _ ___ _ ___ _ ___ _ ___ _ ___
 72
    65
 73
     4
 40
1.125
 49
0.75
 49
-0.125
 49
0.125
 49
-0.125
  0
LTYPE
  2
CENTERX2
 70
     0
  3
Center (2x) ________  __  ________  __  _____
 72
    65
 73
     4
 40
4.0
 49
2.5
 49
-0.5
 49
0.5
 49
-0.5
  0
LTYPE
  2
DASHDOT2
 70
     0
  3
Dash dot (.5x) _._._._._._._._._._._._._._._.
 72
    65
 73
     4
 40
0.5
 49
0.25
 49
-0.125
 49
0.0
 49
-0.125
  0
LTYPE
  2
DASHDOTX2
 70
     0
  3
Dash dot (2x) ____  .  ____  .  ____  .  ___
 72
    65
 73
     4
 40
2.0
 49
1.0
 49
-0.5
 49
0.0
 49
-0.5
  0
LTYPE
  2
DASHED2
 70
     0
  3
Dashed (.5x) _ _ _ _ _ _ _ _ _ _ _ _ _ _ _ _ _
 72
    65
 73
     2
 40
0.375
 49
0.25
 49
-0.125
  0
LTYPE
  2
DASHEDX2
 70
     0
  3
Dashed (2x) ____  ____  ____  ____  ____  ___
 72
    65
 73
     2
 40
1.5
 49
1.0
 49
-0.5
  0
LTYPE
  2
DIVIDE
 70
     0
  3
Divide ____ . . ____ . . ____ . . ____ . . ____
 72
    65
 73
     6
 40
1.25
 49
0.5
 49
-0.25
 49
0.0
 49
-0.25
 49
0.0
 49
-0.25
  0
LTYPE
  2
DIVIDE2
 70
     0
  3
Divide (.5x) __..__..__..__..__..__..__..__.._
 72
    65
 73
     6
 40
0.625
 49
0.25
 49
-0.125
 49
0.0
 49
-0.125
 49
0.0
 49
-0.125
  0
LTYPE
  2
DIVIDEX2
 70
     0
  3
Divide (2x) ________  .  .  ________  .  .  _
 72
    65
 73
     6
 40
2.5
 49
1.0
 49
-0.5
 49
0.0
 49
-0.5
 49
0.0
 49
-0.5
  0
LTYPE
  2
DOT
 70
     0
  3
Dot . . . . . . . . . . . . . . . . . . . . . .
 72
    65
 73
     2
 40
0.25
 49
0.0
 49
-0.25
  0
LTYPE
  2
DOT2
 70
     0
  3
Dot (.5x) .....................................
 72
    65
 73
     2
 40
0.125
 49
0.0
 49
-0.125
  0
LTYPE
  2
DOTX2
 70
     0
  3
Dot (2x) .  .  .  .  .  .  .  .  .  .  .  .  . 
 72
    65
 73
     2
 40
0.5
 49
0.0
 49
-0.5
  0
LTYPE
  2
HIDDEN
 70
     0
  3
Hidden __ __ __ __ __ __ __ __ __ __ __ __ __ _
 72
    65
 73
     2
 40
0.375
 49
0.25
 49
-0.125
  0
LTYPE
  2
HIDDEN2
 70
     0
  3
Hidden (.5x) _ _ _ _ _ _ _ _ _ _ _ _ _ _ _ _ _
 72
    65
 73
     2
 40
0.1875
 49
0.125
 49
-0.0625
  0
LTYPE
  2
HIDDENX2
 70
     0
  3
Hidden (2x) ____ ____ ____ ____ ____ ____ ____
 72
    65
 73
     2
 40
0.75
 49
0.5
 49
-0.25
  0
LTYPE
  2
PHANTOM
 70
     0
  3
Phantom ______  __  __  ______  __  __  ______
 72
    65
 73
     6
 40
2.5
 49
1.25
 49
-0.25
 49
0.25
 49
-0.25
 49
0.25
 49
-0.25
  0
LTYPE
  2
PHANTOM2
 70
     0
  3
Phantom (.5x) ___ _ _ ___ _ _ ___ _ _ ___ _ _
 72
    65
 73
     6
 40
1.25
 49
0.625
 49
-0.125
 49
0.125
 49
-0.125
 49
0.125
 49
-0.125
  0
LTYPE
  2
PHANTOMX2
 70
     0
  3
Phantom (2x) ____________    ____    ____   _
 72
    65
 73
     6
 40
5.0
 49
2.5
 49
-0.5
 49
0.5
 49
-0.5
 49
0.5
 49
-0.5
  0
LTYPE
  2
ACAD_ISO02W100
 70
     0
  3
ISO dash __ __ __ __ __ __ __ __ __ __ __ __ __
 72
    65
 73
     2
 40
0.59
 49
0.47
 49
-0.12
  0
LTYPE
  2
ACAD_ISO03W100
 70
     0
  3
ISO dash space __    __    __    __    __    __
 72
    65
 73
     2
 40
1.179999999999999
 49
0.47
 49
-0.71
  0
LTYPE
  2
ACAD_ISO04W100
 70
     0
  3
ISO long-dash dot ____ . ____ . ____ . ____ . _
 72
    65
 73
     4
 40
1.179999999999999
 49
0.9399999999999998
 49
-0.12
 49
0.0
 49
-0.12
  0
LTYPE
  2
ACAD_ISO05W100
 70
     0
  3
ISO long-dash double-dot ____ .. ____ .. ____ .
 72
    65
 73
     6
 40
1.2999999999999989
 49
0.9399999999999998
 49
-0.12
 49
0.0
 49
-0.12
 49
0.0
 49
-0.12
  0
LTYPE
  2
ACAD_ISO06W100
 70
     0
  3
ISO long-dash triple-dot ____ ... ____ ... ____
 72
    65
 73
     8
 40
1.419999999999999
 49
0.9399999999999998
 49
-0.12
 49
0.0
 49
-0.12
 49
0.0
 49
-0.12
 49
0.0
 49
-0.12
  0
LTYPE
  2
ACAD_ISO07W100
 70
     0
  3
ISO dot . . . . . . . . . . . . . . . . . . . .
 72
    65
 73
     2
 40
0.12
 49
0.0
 49
-0.12
  0
LTYPE
  2
ACAD_ISO08W100
 70
     0
  3
ISO long-dash short-dash ____ __ ____ __ ____ _
 72
    65
 73
     4
 40
0.95
 49
0.47
 49
-0.12
 49
0.24
 49
-0.12
  0
LTYPE
  2
ACAD_ISO09W100
 70
     0
  3
ISO long-dash double-short-dash ____ __ __ ____
 72
    65
 73
     6
 40
1.3100000000000001
 49
0.47
 49
-0.12
 49
0.24
 49
-0.12
 49
0.24
 49
-0.12
  0
LTYPE
  2
ACAD_ISO10W100
 70
     0
  3
ISO dash dot __ . __ . __ . __ . __ . __ . __ .
 72
    65
 73
     4
 40
0.71
 49
0.47
 49
-0.12
 49
0.0
 49
-0.12
  0
LTYPE
  2
ACAD_ISO11W100
 70
     0
  3
ISO double-dash dot __ __ . __ __ . __ __ . __ 
 72
    65
 73
     6
 40
1.2999999999999989
 49
0.47
 49
-0.12
 49
0.47
 49
-0.12
 49
0.0
 49
-0.12
  0
LTYPE
  2
ACAD_ISO12W100
 70
     0
  3
ISO dash double-dot __ . . __ . . __ . . __ . .
 72
    65
 73
     6
 40
0.8299999999999999
 49
0.47
 49
-0.12
 49
0.0
 49
-0.12
 49
0.0
 49
-0.12
  0
LTYPE
  2
ACAD_ISO13W100
 70
     0
  3
ISO double-dash double-dot __ __ . . __ __ . . 
 72
    65
 73
     8
 40
1.419999999999999
 49
0.47
 49
-0.12
 49
0.47
 49
-0.12
 49
0.0
 49
-0.12
 49
0.0
 49
-0.12
  0
LTYPE
  2
ACAD_ISO14W100
 70
     0
  3
ISO dash triple-dot __ . . . __ . . . __ . . . 
 72
    65
 73
     8
 40
0.95
 49
0.47
 49
-0.12
 49
0.0
 49
-0.12
 49
0.0
 49
-0.12
 49
0.0
 49
-0.12
  0
LTYPE
  2
ACAD_ISO15W100
 70
     0
  3
ISO double-dash triple-dot __ __ . . . __ __ . 
 72
    65
 73
    10
 40
1.5399999999999989
 49
0.47
 49
-0.12
 49
0.47
 49
-0.12
 49
0.0
 49
-0.12
 49
0.0
 49
-0.12
 49
0.0
 49
-0.12
  0
LTYPE
  2
FENCELINE1
 70
     0
  3
Fenceline circle ----0-----0----0-----0----0---
 72
    65
 73
     4
 40
1.45
 49
0.25
 49
-0.1
 49
-0.1
 49
1.0
  0
LTYPE
  2
FENCELINE2
 70
     0
  3
Fenceline square ----[]-----[]----[]-----[]----
 72
    65
 73
     4
 40
1.45
 49
0.25
 49
-0.1
 49
-0.1
 49
1.0
  0
LTYPE
  2
TRACKS
 70
     0
  3
Tracks -|-|-|-|-|-|-|-|-|-|-|-|-|-|-|-|-|-|-|-|
 72
    65
 73
     2
 40
0.3
 49
0.15
 49
0.15
  0
LTYPE
  2
BATTING
 70
     0
  3
Batting SSSSSSSSSSSSSSSSSSSSSSSSSSSSSSSSSSSSSSS
 72
    65
 73
     4
 40
0.4001000000000001
 49
0.0001
 49
-0.1
 49
-0.2
 49
-0.1
  0
LTYPE
  2
HOT_WATER_SUPPLY
 70
     0
  3
Hot water supply ---- HW ---- HW ---- HW ----
 72
    65
 73
     3
 40
0.9
 49
0.5
 49
-0.2
 49
-0.2
  0
LTYPE
  2
GAS_LINE
 70
     0
  3
Gas line ----GAS----GAS----GAS----GAS----GAS---
 72
    65
 73
     3
 40
0.95
 49
0.5
 49
-0.2
 49
-0.25
  0
LTYPE
  2
ZIGZAG
 70
     0
  3
Zig zag /\/\/\/\/\/\/\/\/\/\/\/\/\/\/\/\/\/\/\/
 72
    65
 73
     4
 40
0.8001000000000001
 49
0.0001
 49
-0.2
 49
-0.4
 49
-0.2
  0
ENDTAB
  0
TABLE
  2
LAYER
 70
     1
  0
LAYER
  2
0
 70
     0
 62
     7
  6
CONTINUOUS
  0
ENDTAB
  0
TABLE
  2
STYLE
 70
     3
  0
STYLE
  2
STANDARD
 70
     0
 40
0.0
 41
1.0
 50
0.0
 71
     0
 42
0.2
  3
txt
  4

  0
STYLE
  2
ANNOTATIVE
 70
     0
 40
0.0
 41
1.0
 50
0.0
 71
     0
 42
0.2
  3
txt
  4

  0
STYLE
  2

 70
     1
 40
0.0
 41
1.0
 50
0.0
 71
     0
 42
0.2
  3
ltypeshp.shx
  4

  0
ENDTAB
  0
TABLE
  2
VIEW
 70
     0
  0
ENDTAB
  0
TABLE
  2
UCS
 70
     0
  0
ENDTAB
  0
TABLE
  2
APPID
 70
     3
  0
APPID
  2
ACAD
 70
     0
  0
APPID
  2
ACADANNOTATIVE
 70
     0
  0
APPID
  2
ACAD_MLEADERVER
 70
     0
  0
ENDTAB
  0
TABLE
  2
DIMSTYLE
 70
     2
  0
DIMSTYLE
  2
STANDARD
 70
     0
  3

  4

  5

  6

  7

 40
1.0
 41
0.18
 42
0.0625
 43
0.38
 44
0.18
 45
0.0
 46
0.0
 47
0.0
 48
0.0
140
0.18
141
0.09
142
0.0
143
25.399999999999999
144
1.0
145
0.0
146
1.0
147
0.09
 71
     0
 72
     0
 73
     1
 74
     1
 75
     0
 76
     0
 77
     0
 78
     0
170
     0
171
     2
172
     0
173
     0
174
     0
175
     0
176
     0
177
     0
178
     0
  0
DIMSTYLE
  2
ANNOTATIVE
 70
     0
  3

  4

  5

  6

  7

 40
1.0
 41
0.18
 42
0.0625
 43
0.38
 44
0.18
 45
0.0
 46
0.0
 47
0.0
 48
0.0
140
0.18
141
0.09
142
0.0
143
25.399999999999999
144
1.0
145
0.0
146
1.0
147
0.09
 71
     0
 72
     0
 73
     1
 74
     1
 75
     0
 76
     0
 77
     0
 78
     0
170
     0
171
     2
172
     0
173
     0
174
     0
175
     0
176
     0
177
     0
178
     0
  0
ENDTAB
  0
ENDSEC
  0
SECTION
  2
BLOCKS
  0
BLOCK
  8
0
  2
$MODEL_SPACE
 70
     0
 10
0.0
 20
0.0
 30
0.0
  3
$MODEL_SPACE
  1

  0
ENDBLK
  5
72
  8
0
  0
BLOCK
 67
     1
  8
0
  2
$PAPER_SPACE
 70
     0
 10
0.0
 20
0.0
 30
0.0
  3
$PAPER_SPACE
  1

  0
ENDBLK
  5
6E
 67
     1
  8
0
  0
ENDSEC
  0
SECTION
  2
ENTITIES
  0
POLYLINE
  5
B6
  8
0
 66
     1
 10
0.0
 20
0.0
 30
0.0
 70
     1
  0
VERTEX
  5
B7
  8
0
 10
20.949999999999999
 20
0.0
 30
0.0
  0
VERTEX
  5
B8
  8
0
 10
0.0
 20
0.0
 30
0.0
  0
VERTEX
  5
BA
  8
0
 10
0.0
 20
-1.567446609406723
 30
0.0
  0
VERTEX
  5
BB
  8
0
 10
0.0999999999999991
 20
-1.567446609406723
 30
0.0
  0
VERTEX
  5
BC
  8
0
 10
0.0999999999999991
 20
-1.708818278818258
 30
0.0
  0
VERTEX
  5
BD
  8
0
 10
-0.1827433388230785
 20
-1.7088182788182611
 30
0.0
  0
VERTEX
  5
BE
  8
0
 10
-0.182743338822961
 20
-1.3552648882249709
 30
0.0
  0
VERTEX
  5
BF
  8
0
 10
-1.1143187701856581
 20
-0.4236894568622433
 30
0.0
  0
VERTEX
  5
C0
  8
0
 10
-3.8077433388230788
 20
-0.4236894568622433
 30
0.0
 42
0.4142135623730951
  0
VERTEX
  5
C1
  8
0
 10
-3.9327433388230788
 20
-0.5486894568622441
 30
0.0
  0
VERTEX
  5
C2
  8
0
 10
-3.932743338822962
 20
-3.5486894568622418
 30
0.0
 42
0.4142135623730951
  0
VERTEX
  5
C3
  8
0
 10
-3.8077433388230819
 20
-3.6736894568622431
 30
0.0
  0
VERTEX
  5
C4
  8
0
 10
0.1000000000000047
 20
-3.67368945686224
 30
0.0
  0
VERTEX
  5
C5
  8
0
 10
0.1000000000000019
 20
-9.6736894568622418
 30
0.0
  0
VERTEX
  5
C6
  8
0
 10
-3.8077433388230788
 20
-9.6736894568622418
 30
0.0
 42
0.4142135623730951
  0
VERTEX
  5
C7
  8
0
 10
-3.9327433388230788
 20
-9.7986894568622418
 30
0.0
  0
VERTEX
  5
C8
  8
0
 10
-3.9327433388229651
 20
-21.063057960912541
 30
0.0
 42
0.4142135623730951
  0
VERTEX
  5
C9
  8
0
 10
-3.8077433388230819
 20
-21.188057960912548
 30
0.0
  0
VERTEX
  5
CA
  8
0
 10
-0.6285364115105282
 20
-21.188057960912548
 30
0.0
  0
VERTEX
  5
CB
  8
0
 10
-0.1827433388229666
 20
-20.74226488822498
 30
0.0
  0
VERTEX
  5
CC
  8
0
 10
-0.1827433388230841
 20
-20.388711497631711
 30
0.0
  0
VERTEX
  5
CD
  8
0
 10
0.0999999999999936
 20
-20.388711497631711
 30
0.0
  0
VERTEX
  5
CE
  8
0
 10
0.0999999999999936
 20
-20.530083167043252
 30
0.0
  0
VERTEX
  5
CF
  8
0
 10
-0.0000000000000056
 20
-20.530083167043252
 30
0.0
  0
VERTEX
  5
D0
  8
0
 10
-0.0000000000000056
 20
-21.41052977644998
 30
0.0
  0
VERTEX
  5
D1
  8
0
 10
7.3499999999999952
 20
-21.41052977644998
 30
0.0
 42
0.4142135623730951
  0
VERTEX
  5
D2
  8
0
 10
7.4749999999999952
 20
-21.28552977644998
 30
0.0
  0
VERTEX
  5
D3
  8
0
 10
7.4749999999999934
 20
-17.188057960912548
 30
0.0
  0
VERTEX
  5
D4
  8
0
 10
13.474999999999991
 20
-17.188057960912548
 30
0.0
  0
VERTEX
  5
D5
  8
0
 10
13.474999999999991
 20
-21.28552977644998
 30
0.0
 42
0.4142135623730951
  0
VERTEX
  5
D6
  8
0
 10
13.599999999999991
 20
-21.41052977644998
 30
0.0
  0
VERTEX
  5
D7
  8
0
 10
20.949999999999999
 20
-21.41052977644998
 30
0.0
  0
VERTEX
  5
D8
  8
0
 10
20.949999999999999
 20
-20.530083167043252
 30
0.0
  0
VERTEX
  5
D9
  8
0
 10
20.849999999999991
 20
-20.530083167043252
 30
0.0
  0
VERTEX
  5
DA
  8
0
 10
20.849999999999991
 20
-20.388711497631711
 30
0.0
  0
VERTEX
  5
DB
  8
0
 10
21.132743338823079
 20
-20.388711497631711
 30
0.0
  0
VERTEX
  5
DC
  8
0
 10
21.132743338823079
 20
-20.74226488822498
 30
0.0
  0
VERTEX
  5
DD
  8
0
 10
21.57853641151064
 20
-21.188057960912548
 30
0.0
  0
VERTEX
  5
DE
  8
0
 10
24.757743338823069
 20
-21.188057960912548
 30
0.0
 42
0.4142135623730951
  0
VERTEX
  5
DF
  8
0
 10
24.882743338823069
 20
-21.063057960912548
 30
0.0
  0
VERTEX
  5
E0
  8
0
 10
24.882743338823079
 20
-9.7986894568622471
 30
0.0
 42
0.4142135623730951
  0
VERTEX
  5
E1
  8
0
 10
24.757743338823079
 20
-9.6736894568622471
 30
0.0
  0
VERTEX
  5
E2
  8
0
 10
20.849999999999991
 20
-9.6736894568622471
 30
0.0
  0
VERTEX
  5
E3
  8
0
 10
20.850000000000001
 20
-3.6736894568622458
 30
0.0
  0
VERTEX
  5
E4
  8
0
 10
24.757743338823079
 20
-3.6736894568622458
 30
0.0
 42
0.4142135623730951
  0
VERTEX
  5
E5
  8
0
 10
24.882743338823079
 20
-3.5486894568622449
 30
0.0
  0
VERTEX
  5
E6
  8
0
 10
24.88274333882309
 20
-0.5486894568622498
 30
0.0
 42
0.4142135623730951
  0
VERTEX
  5
E7
  8
0
 10
24.757743338823079
 20
-0.4236894568622498
 30
0.0
  0
VERTEX
  5
E8
  8
0
 10
22.064318770185778
 20
-0.4236894568622488
 30
0.0
  0
VERTEX
  5
E9
  8
0
 10
21.132743338823079
 20
-1.3552648882249769
 30
0.0
  0
VERTEX
  5
EA
  8
0
 10
21.132743338823079
 20
-1.708818278818258
 30
0.0
  0
VERTEX
  5
EB
  8
0
 10
20.850000000000001
 20
-1.708818278818258
 30
0.0
  0
VERTEX
  5
EC
  8
0
 10
20.850000000000001
 20
-1.567446609406723
 30
0.0
  0
VERTEX
  5
ED
  8
0
 10
20.949999999999999
 20
-1.567446609406723
 30
0.0
  0
SEQEND
  5
B9
  8
0
  0
CIRCLE
  5
EF
  8
0
 10
-0.620243338822966
 20
-3.4236894568622329
 30
0.0
 40
0.1329999999999996
  0
CIRCLE
  5
F0
  8
0
 10
-2.7452433388229771
 20
-0.923689456862233
 30
0.0
 40
0.1004999999999974
  0
CIRCLE
  5
F1
  8
0
 10
-1.370243338822952
 20
-1.6736894568622329
 30
0.0
 40
0.1005000000000016
  0
CIRCLE
  5
F2
  8
0
 10
-3.1202433388229691
 20
-1.2986894568622329
 30
0.0
 40
0.1004999999999968
  0
CIRCLE
  5
F3
  8
0
 10
-3.4952433388229629
 20
-1.6736894568622329
 30
0.0
 40
0.1005000000000012
  0
CIRCLE
  5
F4
  8
0
 10
-0.9952433388229577
 20
-1.2986894568622329
 30
0.0
 40
0.1050000000000008
  0
CIRCLE
  5
F5
  8
0
 10
-3.4952433388229629
 20
-2.4236894568622329
 30
0.0
 40
0.1329999999999998
  0
CIRCLE
  5
F6
  8
0
 10
-3.495243338822966
 20
-3.4236894568622329
 30
0.0
 40
0.1467999999999999
  0
CIRCLE
  5
F7
  8
0
 10
-0.8702433388229623
 20
-2.4236894568622329
 30
0.0
 40
0.1502499999999999
  0
CIRCLE
  5
F8
  8
0
 10
-0.870243338822965
 20
-19.79868945686222
 30
0.0
 40
0.1899999999999997
  0
CIRCLE
  5
F9
  8
0
 10
-0.620243338822966
 20
-17.42368945686222
 30
0.0
 40
0.1467999999999999
  0
CIRCLE
  5
FA
  8
0
 10
-3.4952433388229629
 20
-17.42368945686222
 30
0.0
 40
0.1467999999999999
  0
CIRCLE
  5
FB
  8
0
 10
-0.6202433388229631
 20
-12.42368945686222
 30
0.0
 40
0.1329999999999996
  0
CIRCLE
  5
FC
  8
0
 10
-0.6202433388229631
 20
-18.42368945686222
 30
0.0
 40
0.1329999999999997
  0
CIRCLE
  5
FD
  8
0
 10
-3.4952433388229629
 20
-11.42368945686222
 30
0.0
 40
0.1329999999999998
  0
CIRCLE
  5
FE
  8
0
 10
-3.4952433388229629
 20
-15.42368945686222
 30
0.0
 40
0.1329999999999998
  0
CIRCLE
  5
FF
  8
0
 10
-0.6202433388229631
 20
-14.42368945686222
 30
0.0
 40
0.1329999999999996
  0
CIRCLE
  5
100
  8
0
 10
-1.682743338822964
 20
-15.92368945686222
 30
0.0
 40
0.1004999999999993
  0
CIRCLE
  5
101
  8
0
 10
-2.4327433388229651
 20
-16.67368945686222
 30
0.0
 40
0.1005000000000004
  0
CIRCLE
  5
102
  8
0
 10
-2.0577433388229638
 20
-16.29868945686222
 30
0.0
 40
0.1049999999999992
  0
CIRCLE
  5
103
  8
0
 10
-2.394121974341882
 20
-19.128392616671139
 30
0.0
 40
0.1329999999999996
  0
CIRCLE
  5
104
  8
0
 10
-3.4952433388229598
 20
-12.423689456862229
 30
0.0
 40
0.1329999999999998
  0
CIRCLE
  5
105
  8
0
 10
-3.4952433388229598
 20
-14.42368945686222
 30
0.0
 40
0.1329999999999998
  0
CIRCLE
  5
106
  8
0
 10
-0.6202433388229631
 20
-15.42368945686222
 30
0.0
 40
0.1329999999999996
  0
CIRCLE
  5
107
  8
0
 10
-0.6202433388229631
 20
-13.42368945686222
 30
0.0
 40
0.1467999999999999
  0
CIRCLE
  5
108
  8
0
 10
-3.4952433388229629
 20
-10.42368945686222
 30
0.0
 40
0.1467999999999999
  0
CIRCLE
  5
109
  8
0
 10
-3.4952433388229598
 20
-13.42368945686222
 30
0.0
 40
0.1467999999999999
  0
CIRCLE
  5
10A
  8
0
 10
-0.7202433388229622
 20
-11.42368945686222
 30
0.0
 40
0.1502499999999999
  0
CIRCLE
  5
10B
  8
0
 10
-3.3702433388229651
 20
-18.29868945686222
 30
0.0
 40
0.15025
  0
CIRCLE
  5
10C
  8
0
 10
-0.870243338822965
 20
-20.42368945686222
 30
0.0
 40
0.2057291666666668
  0
CIRCLE
  5
10D
  8
0
 10
21.570243338823079
 20
-3.423689456862236
 30
0.0
 40
0.1329999999999996
  0
CIRCLE
  5
10E
  8
0
 10
23.695243338823101
 20
-0.9236894568622359
 30
0.0
 40
0.1004999999999974
  0
CIRCLE
  5
10F
  8
0
 10
22.320243338823069
 20
-1.673689456862236
 30
0.0
 40
0.1005000000000016
  0
CIRCLE
  5
110
  8
0
 10
24.07024333882309
 20
-1.298689456862236
 30
0.0
 40
0.1004999999999968
  0
CIRCLE
  5
111
  8
0
 10
24.445243338823079
 20
-1.673689456862236
 30
0.0
 40
0.1005000000000012
  0
CIRCLE
  5
112
  8
0
 10
21.945243338823069
 20
-1.298689456862236
 30
0.0
 40
0.1050000000000008
  0
CIRCLE
  5
113
  8
0
 10
24.445243338823079
 20
-2.423689456862236
 30
0.0
 40
0.1329999999999998
  0
CIRCLE
  5
114
  8
0
 10
24.445243338823079
 20
-3.423689456862236
 30
0.0
 40
0.1467999999999999
  0
CIRCLE
  5
115
  8
0
 10
21.820243338823079
 20
-2.423689456862236
 30
0.0
 40
0.1502499999999999
  0
CIRCLE
  5
116
  8
0
 10
21.820243338823069
 20
-19.798689456862231
 30
0.0
 40
0.1899999999999997
  0
CIRCLE
  5
117
  8
0
 10
21.570243338823069
 20
-17.423689456862231
 30
0.0
 40
0.1467999999999999
  0
CIRCLE
  5
118
  8
0
 10
24.445243338823079
 20
-17.423689456862231
 30
0.0
 40
0.1467999999999999
  0
CIRCLE
  5
119
  8
0
 10
21.570243338823079
 20
-12.423689456862229
 30
0.0
 40
0.1329999999999996
  0
CIRCLE
  5
11A
  8
0
 10
21.570243338823069
 20
-18.423689456862231
 30
0.0
 40
0.1329999999999997
  0
CIRCLE
  5
11B
  8
0
 10
24.445243338823079
 20
-11.423689456862229
 30
0.0
 40
0.1329999999999998
  0
CIRCLE
  5
11C
  8
0
 10
24.445243338823079
 20
-15.423689456862229
 30
0.0
 40
0.1329999999999998
  0
CIRCLE
  5
11D
  8
0
 10
21.570243338823079
 20
-14.423689456862229
 30
0.0
 40
0.1329999999999996
  0
CIRCLE
  5
11E
  8
0
 10
22.632743338823079
 20
-15.923689456862229
 30
0.0
 40
0.1004999999999993
  0
CIRCLE
  5
11F
  8
0
 10
23.382743338823069
 20
-16.673689456862231
 30
0.0
 40
0.1005000000000004
  0
CIRCLE
  5
120
  8
0
 10
23.007743338823079
 20
-16.298689456862231
 30
0.0
 40
0.1049999999999992
  0
CIRCLE
  5
121
  8
0
 10
23.344121974341991
 20
-19.128392616671139
 30
0.0
 40
0.1329999999999996
  0
CIRCLE
  5
122
  8
0
 10
24.445243338823079
 20
-12.423689456862229
 30
0.0
 40
0.1329999999999998
  0
CIRCLE
  5
123
  8
0
 10
24.445243338823079
 20
-14.423689456862229
 30
0.0
 40
0.1329999999999998
  0
CIRCLE
  5
124
  8
0
 10
21.570243338823069
 20
-15.423689456862229
 30
0.0
 40
0.1329999999999996
  0
CIRCLE
  5
125
  8
0
 10
21.570243338823079
 20
-13.423689456862229
 30
0.0
 40
0.1467999999999999
  0
CIRCLE
  5
126
  8
0
 10
24.445243338823079
 20
-10.423689456862229
 30
0.0
 40
0.1467999999999999
  0
CIRCLE
  5
127
  8
0
 10
24.445243338823079
 20
-13.423689456862229
 30
0.0
 40
0.1467999999999999
  0
CIRCLE
  5
128
  8
0
 10
21.670243338823081
 20
-11.423689456862229
 30
0.0
 40
0.1502499999999999
  0
CIRCLE
  5
129
  8
0
 10
24.320243338823069
 20
-18.298689456862231
 30
0.0
 40
0.15025
  0
CIRCLE
  5
12A
  8
0
 10
21.820243338823069
 20
-20.423689456862231
 30
0.0
 40
0.2057291666666668
  0
ENDSEC
  0
EOF
